<svg width="206" height="216" viewBox="0 0 206 216" fill="none" xmlns="http://www.w3.org/2000/svg">
<ellipse rx="76.6925" ry="76.5749" transform="matrix(-0.388031 0.921646 -0.921034 -0.389482 105.713 100.508)" fill="url(#paint0_linear)"/>
<path d="M132.391 132.137C132.43 131.775 132.528 131.43 132.572 131.068C132.723 129.826 131.975 128.64 130.738 128.296C129.321 127.902 127.821 128.766 127.416 130.204C127.411 130.223 127.41 130.227 127.405 130.247C127.247 130.856 124.107 141.616 120.962 146.373C117.769 151.202 107.947 169.829 116.302 179.026C118.113 181.019 119.39 182.511 122.489 182.879C125.589 183.246 128.112 180.457 128.364 179.705C128.616 178.952 136.303 159.12 134.519 148.339C132.931 138.743 132.09 134.95 132.391 132.137Z" fill="#0E0517"/>
<path d="M52.2353 90.2321C52.5725 89.9184 52.852 89.5544 53.1852 89.2356C54.3315 88.1391 56.0559 88.0287 57.2773 89.0702C58.6755 90.2624 58.863 92.4921 57.699 94.0031C57.6835 94.0232 57.6798 94.0279 57.6639 94.0477C57.1605 94.6737 48.5253 106.101 45.9491 112.999C43.3335 120.004 31.4828 144.397 16.3053 142.558C13.0154 142.159 10.608 141.943 8.04842 138.962C5.48886 135.981 6.51947 131.222 7.1007 130.388C7.68194 129.554 22.2557 106.496 34.3895 100.231C45.1912 94.6535 49.6108 92.6738 52.2353 90.2321Z" fill="#0E0517"/>
<path d="M154.948 133.755C154.948 133.755 133.05 121.43 101.522 103.187C69.9944 84.9441 47.2818 71.1405 47.2818 71.1405C47.2818 71.1405 65.9423 67.4454 88.3407 72.7026C96.4476 74.6055 105.044 77.6811 113.423 82.5292C147.238 102.638 154.948 133.755 154.948 133.755Z" fill="#F0FCFF"/>
<path d="M152.155 139.179C148.296 145.778 120.468 137.049 89.9996 119.684C59.5313 102.318 37.5135 81.7079 41.3727 75.1091C45.2319 68.5103 73.5068 78.4216 103.975 95.7873C134.443 113.153 156.014 132.58 152.155 139.179Z" fill="#0E0517"/>
<path d="M154.402 129.034C155.799 132.978 154.402 141.335 154.402 141.335C154.402 141.335 142.593 141.389 125.644 129.034C118.013 123.473 115.289 110.182 101.798 102.298C85.3973 92.7136 66.176 93.6764 56.4647 89.579C40.4423 82.8187 39.4285 74.7464 39.4285 74.7464C39.4285 74.7464 46.4258 69.4244 49.8653 69.2191C53.3049 69.0139 76.242 71.1844 108.032 89.579C139.823 107.973 153.004 125.091 154.402 129.034Z" fill="url(#paint1_linear)"/>
<path d="M78.4016 85.7174C79.1331 84.8839 79.6922 83.9179 80.4889 83.1464C82.1997 81.4896 84.8653 81.0853 87.0371 82.342C89.6995 83.8825 90.5723 87.311 88.9884 89.9378C88.9573 89.9894 88.9387 90.0186 88.9062 90.0694C87.89 91.6579 64.8826 127.703 62.2297 139.003C59.5167 150.558 45.4092 191.428 19.1622 192.021C13.4729 192.149 9.32819 192.361 4.24148 188.282C-0.845229 184.204 -0.270426 176.524 0.511131 175.087C1.29269 173.649 20.3577 134.245 39.4285 121.67C55.9345 110.786 73.8747 90.876 78.4016 85.7174Z" fill="url(#paint2_linear)"/>
<path d="M97.2245 114.847C97.3627 114.558 97.5461 114.297 97.6884 114.01C98.1782 113.023 97.8964 111.854 96.9559 111.256C95.8793 110.572 94.3652 110.907 93.6048 111.991C93.5947 112.006 93.5923 112.009 93.5825 112.024C93.2718 112.487 81.3869 126.088 81.3869 126.088L73.0279 143.258C71.4049 146.592 73.0214 150.596 76.5004 151.86V151.86C78.6234 152.631 80.997 152.197 82.5858 150.587C86.7628 146.354 94.3404 137.526 93.6048 129.826C92.5943 119.249 96.1487 117.094 97.2245 114.847Z" fill="#0E0517"/>
<path d="M141.764 125.513C141.826 124.924 141.968 124.311 142.037 123.719C142.274 121.681 141.293 120.463 139.626 120.944C137.718 121.495 135.664 124.053 135.078 126.599C135.071 126.633 135.069 126.641 135.062 126.675C134.832 127.743 130.297 146.896 125.912 156.799C121.461 166.853 107.67 203.594 118.741 210.943C121.141 212.535 122.832 213.791 127.019 211.825C131.206 209.858 134.696 203.497 135.058 202.13C135.419 200.764 146.351 163.91 144.219 148.751C142.321 135.255 141.282 130.096 141.764 125.513Z" fill="url(#paint3_linear)"/>
<ellipse opacity="0.2" cx="141.431" cy="51.1277" rx="35" ry="12.5" transform="rotate(37.2284 141.431 51.1277)" fill="white"/>
<defs>
<linearGradient id="paint0_linear" x1="29.9839" y1="13.6686" x2="165.705" y2="108.962" gradientUnits="userSpaceOnUse">
<stop stop-color="#FF3232"/>
<stop offset="1" stop-color="#BD00FF"/>
</linearGradient>
<linearGradient id="paint1_linear" x1="102.476" y1="102.298" x2="56.8868" y2="179.018" gradientUnits="userSpaceOnUse">
<stop stop-color="#622BA5"/>
<stop offset="1" stop-color="#6300FF"/>
</linearGradient>
<linearGradient id="paint2_linear" x1="102.476" y1="102.298" x2="56.8868" y2="179.018" gradientUnits="userSpaceOnUse">
<stop stop-color="#622BA5"/>
<stop offset="1" stop-color="#6300FF"/>
</linearGradient>
<linearGradient id="paint3_linear" x1="148.899" y1="153.613" x2="110.601" y2="153.436" gradientUnits="userSpaceOnUse">
<stop stop-color="#622BA5"/>
<stop offset="1" stop-color="#6300FF"/>
</linearGradient>
</defs>
</svg>
